# xmcd CD database file generated by OrangeCD 4.3
#
# Track frame offsets:
#	150
#	16240
#	31175
#	45372
#	60287
#	76497
#	87572
#	104847
#	121355
#	134277
#	147455
#	161807
#	174882
#	184067
#
# Disc length: 2660 seconds
#
# Revision: 0
# Processed by: cddbd v1.4PL0 Copyright (c) Steve Scherf et al.
# Submitted via: OrangeCD 4.3
#
DISCID=b60a620e
DTITLE=Gal Costa - Barato Modesto
DYEAR=1998
DGENRE=MPB
TTITLE0=Baby
TTITLE1=Não identificado
TTITLE2=Só louco
TTITLE3=Volta
TTITLE4=Força estranha
TTITLE5=Teco-teco
TTITLE6=Você não entende nada
TTITLE7=Juventude transviada
TTITLE8=Camisa amarela
TTITLE9=Deixa sangrar
TTITLE10=Sem grilos
TTITLE11=Acorda pra cuspir
TTITLE12=Estamos aí
TTITLE13=Barato modesto
EXTD=
EXTT0=
EXTT1=
EXTT2=
EXTT3=
EXTT4=
EXTT5=
EXTT6=
EXTT7=
EXTT8=
EXTT9=
EXTT10=
EXTT11=
EXTT12=
EXTT13=
PLAYORDER=
